<svg xmlns="http://www.w3.org/2000/svg" version="1.1" xmlns:xlink="http://www.w3.org/1999/xlink" xmlns:svgjs="http://svgjs.dev/svgjs" width="1440" height="560" preserveAspectRatio="none" viewBox="0 0 1440 560"><g mask="url(&quot;#SvgjsMask1199&quot;)" fill="none"><rect width="1440" height="560" x="0" y="0" fill="rgba(0, 0, 0, 1)"></rect><path d="M 0,153 C 48,218.8 144,467.2 240,482 C 336,496.8 384,222.6 480,227 C 576,231.4 624,521.4 720,504 C 816,486.6 864,152.4 960,140 C 1056,127.6 1104,450.8 1200,442 C 1296,433.2 1392,165.2 1440,96L1440 560L0 560z" fill="rgba(207, 225, 0, 1)"></path><path d="M 0,460 C 28.8,380 86.4,49.8 144,60 C 201.6,70.2 230.4,502.6 288,511 C 345.6,519.4 374.4,113.8 432,102 C 489.6,90.2 518.4,426.6 576,452 C 633.6,477.4 662.4,248.4 720,229 C 777.6,209.6 806.4,371 864,355 C 921.6,339 950.4,145.2 1008,149 C 1065.6,152.8 1094.4,351.4 1152,374 C 1209.6,396.6 1238.4,255 1296,262 C 1353.6,269 1411.2,379.6 1440,409L1440 560L0 560z" fill="rgba(236, 255, 21, 1)"></path><path d="M 0,387 C 24,359.8 72,236.4 120,251 C 168,265.6 192,506.6 240,460 C 288,413.4 312,39.2 360,18 C 408,-3.2 432,318.8 480,354 C 528,389.2 552,178 600,194 C 648,210 672,438.8 720,434 C 768,429.2 792,200.2 840,170 C 888,139.8 912,269.6 960,283 C 1008,296.4 1032,212.2 1080,237 C 1128,261.8 1152,432 1200,407 C 1248,382 1272,127 1320,112 C 1368,97 1416,288 1440,332L1440 560L0 560z" fill="#ca30de"></path><path d="M 0,479 C 19.2,394 57.6,42.2 96,54 C 134.4,65.8 153.6,508.8 192,538 C 230.4,567.2 249.6,225.4 288,200 C 326.4,174.6 345.6,399 384,411 C 422.4,423 441.6,250 480,260 C 518.4,270 537.6,497.4 576,461 C 614.4,424.6 633.6,63 672,78 C 710.4,93 729.6,548 768,536 C 806.4,524 825.6,66.4 864,18 C 902.4,-30.4 921.6,250.8 960,294 C 998.4,337.2 1017.6,193 1056,234 C 1094.4,275 1113.6,523.2 1152,499 C 1190.4,474.8 1209.6,113.4 1248,113 C 1286.4,112.6 1305.6,470.8 1344,497 C 1382.4,523.2 1420.8,294.6 1440,244L1440 560L0 560z" fill="rgba(122, 7, 248, 1)"></path><path d="M 0,285 C 17,275.2 51,222.6 85,236 C 119,249.4 136,378.6 170,352 C 204,325.4 221,88.8 255,103 C 289,117.2 306,436.8 340,423 C 374,409.2 391,10.6 425,34 C 459,57.4 476,537.4 510,540 C 544,542.6 561,85 595,47 C 629,9 646,317.8 680,350 C 714,382.2 731,210.4 765,208 C 799,205.6 816,346.8 850,338 C 884,329.2 901,126 935,164 C 969,202 986,531.4 1020,528 C 1054,524.6 1071,173.6 1105,147 C 1139,120.4 1156,376 1190,395 C 1224,414 1241,221 1275,242 C 1309,263 1327,503.6 1360,500 C 1393,496.4 1424,279.2 1440,224L1440 560L0 560z" fill="rgba(148, 57, 249, 1)"></path></g><defs><mask id="SvgjsMask1199"><rect width="1440" height="560" fill="#ffffff"></rect></mask></defs></svg>